<?xml version="1.0" encoding="utf-8"?>
<!--Designed by Vexels.com - 2018 All Rights Reserved - https://vexels.com/terms-and-conditions/-->
<svg version="1.1" id="Layer_1" xmlns="http://www.w3.org/2000/svg" xmlns:xlink="http://www.w3.org/1999/xlink" x="0px" y="0px"
	 viewBox="0 0 1200 1200" enable-background="new 0 0 1200 1200" xml:space="preserve">
<g>
	<path style="fill:#333;" d="M1140.1,783.745c6.796,0.606,10.171-6.446,9.882-12.053c-3.409-66.174-4.217-132.398-2.908-198.643
		c0.087-4.387-3.722-8.245-8.22-7.735c-18.496,2.097-36.997,4.16-55.498,6.232c-0.881-42.974-10.396-87.953-15.337-130.103
		c-0.793-6.759-6.284-12.049-13.371-9.925c-67.388,20.192-136.906,20.707-206.651,22.402c-63.788,1.549-127.573,3.208-191.358,4.851
		c-1.642,0.043-3.284,0.095-4.927,0.138c-1.984-41.696-4.908-83.245-8.156-124.846c15.813-0.719,31.621-1.547,47.409-2.589
		c29.017-1.917,58.071-4.237,86.963-7.582c13.948-1.616,29.081-1.844,36.443-16.055c6.55-12.644,3.885-35.46,4.384-48.837
		c1.085-29.06,2.108-58.124,3.161-87.185c1.091-30.117,2.39-58.131-33.426-61.009c-51.272-4.12-104.324-1.36-155.727-0.82
		c-22.179,0.233-44.371,0.571-66.56,1.043c-2.435-1.146-5.504-1.093-8.166,0.162c-27.499,0.64-54.992,1.546-82.448,2.943
		c-9.593,0.488-11.969,9.442-9.054,16.378c-1.372,40.238-3.404,80.903-3.513,121.345c-1.25,1.858-2.57,3.656-3.796,5.534
		c-3.184,4.877-0.312,9.539,3.902,10.632c0.027,2.353,0.023,4.71,0.066,7.061c-0.939,1.197-1.924,2.348-2.856,3.551
		c-3.729,4.815-1.003,10.078,3.301,11.69c0.002,0.064,0.004,0.127,0.006,0.189c-4.802,4.334-9.6,8.672-14.394,13.013
		c-7.945,7.193-0.332,21.188,8.882,13.752c2.62-2.114,5.286-4.166,7.916-6.269c2.759,9.406,7.92,15.253,14.677,18.963
		c2.18,5.033,7.782,6.756,12.232,4.324c13.433,2.737,30.16,1.564,47.342,1.75c31.328,0.34,62.672-0.321,93.987-1.605
		c-0.697,41.662-0.206,83.252,1.221,124.919c-126.168,3.371-252.273,7.777-378.396,12.391c-5.83,0.213-4.349,8.584,0.793,8.546
		c126.072-0.933,252.118-1.947,378.18-3.897c0.726,20.932,1.449,41.864,2.166,62.797c0.423,12.346-2.091,31.115,1.551,44.603
		c-29.909,3.517-59.804,7.135-89.465,12.411c-5.75,1.023-3.534,9.469,1.691,9.292c1.523-0.052,3.042-0.156,4.565-0.218
		c-1.294,1.989-2.029,4.501-1.792,7.548c2.19,28.158,4.044,56.385,6.841,84.491c1.31,13.157,1.165,30.938,15.066,37.972
		c15.312,7.749,43.199-1.926,59.422-2.898c27.717-1.662,55.262-0.438,82.843,2.497c5.24,0.558,10.721-4.72,10.539-9.972
		c-1.655-47.848-2.367-95.73-3.86-143.584c-0.142-4.559-4.352-8.042-8.864-7.362c-20.026,3.018-40.131,5.476-60.248,7.852
		c1.732-12.504-0.672-26.596-1.154-38.679c-0.889-22.333-1.88-44.661-2.861-66.991c5.9-0.095,11.799-0.162,17.699-0.262
		c66.924-1.133,133.846-2.32,200.768-3.603c59.639-1.143,119.882-2.271,177.976-16.758c3.666,39.086,5.478,80.001,13.01,118.435
		c-39.064,4.409-78.103,9.017-117.078,14.135c-5.574-8.391-20.101-8.913-20.534,2.684c-1.144,0.156-2.29,0.292-3.434,0.449
		c-6.481,0.894-3.079,9.492,2.441,9.134c0.428-0.027,0.855-0.065,1.282-0.092c1.625,41.198,3.494,82.386,5.337,123.575
		c0.923,20.639-1.189,46.343,19.845,57.828c21.168,11.559,52.371,2.486,74.616,0.813c5.671-0.426,11.341-0.751,17.012-1.024
		c0.198,27.463,3.63,56.019,7.816,83.125c-37.086,4.88-74.158,9.821-111.095,16.096c-4.59,0.78-4.01,4.919-1.458,7.403
		c-2.608,1.905-4.408,5.007-4.313,9.437c0.621,29.148,1.323,58.291,2.118,87.434c0.666,24.434-4.794,59.888,4.074,82.997
		c4.571,11.911,12.92,13.383,24.929,13.752c27.69,0.854,55.813-2.165,83.443-3.72c14.194-0.798,28.389-1.576,42.584-2.35
		c11.287-0.614,27.048,1.356,37.378-3.839c11.845-5.957,11.287-16.369,11.783-28.766c2.402-60.083,4.317-120.246,5.317-180.369
		c0.077-4.637-3.931-10.588-9.245-9.795c-22.855,3.412-45.741,6.473-68.628,9.49c-2.059-26.754-5.178-55.181-11.52-81.407
		C1083.149,780.168,1111.645,781.209,1140.1,783.745z M538.573,136.973c-3.042,2.905-6.12,5.787-9.009,8.791
		c0.196-2.559-1.055-5.038-3.122-6.422c0.543-0.421,1.085-0.84,1.628-1.26c0.355-0.275,0.646-0.564,0.911-0.856
		C532.178,137.139,535.376,137.058,538.573,136.973z M763.307,265.051c-7.451,8.243-15.669,15.106-24.698,20.879
		c4.644-5.9,9.504-11.591,14.687-16.974c6.974-5.248,13.844-10.632,20.583-16.188c-0.356,1.147-0.775,2.28-1.147,3.423
		c-1.371,0.43-2.72,1.187-3.924,2.396C766.725,260.677,764.948,262.846,763.307,265.051z M780.049,207.089
		c-0.05,0.041-0.102,0.08-0.152,0.121c-3.38,1.993-6.727,4.025-10.061,6.072c2.054-4.135,3.989-8.337,5.796-12.609
		c2.238-1.961,4.451-3.959,6.669-5.948c0.314,3.562,0.634,7.122,0.828,10.685c-0.361,0.154-0.717,0.29-1.091,0.507
		c-0.667,0.39-1.314,0.802-1.979,1.195C780.056,207.104,780.052,207.097,780.049,207.089z M704.058,259.805
		c-0.385,0.313-0.761,0.638-1.145,0.953c0.276-0.459,0.547-0.919,0.821-1.38C703.841,259.521,703.951,259.662,704.058,259.805z
		 M726.503,242.475c-0.268-0.572-0.585-1.079-0.952-1.517c6.247-4.591,12.453-9.243,18.564-14.037
		c-1.254,1.955-2.609,3.84-3.927,5.75C735.578,235.876,731.018,239.148,726.503,242.475z M752.215,191.898
		c4.702-3.632,9.333-7.365,13.991-11.059c-0.325,0.964-0.655,1.926-0.994,2.885C761.268,186.155,756.916,188.884,752.215,191.898z
		 M672.286,277.711c0.048-0.266,0.084-0.533,0.132-0.799c0.229-0.221,0.464-0.443,0.697-0.666
		C672.839,276.735,672.562,277.223,672.286,277.711z M539.579,180.842c-0.872,4.255-1.744,8.51-2.616,12.766
		c-2.825,2.306-5.649,4.614-8.474,6.921c-0.249-2.9-0.475-5.802-0.732-8.701c3.009-3.408,6.036-6.799,9.095-10.166
		C537.76,181.382,538.664,181.09,539.579,180.842z M606.918,209.252c0.007-0.047,0.014-0.096,0.02-0.143
		c0.091-0.07,0.181-0.142,0.272-0.212C607.112,209.014,607.017,209.134,606.918,209.252z M531.258,221.446
		c-0.317,0.24-0.631,0.484-0.947,0.725c-0.009-0.115-0.02-0.23-0.029-0.345c0.373-0.38,0.755-0.75,1.13-1.129
		C531.36,220.947,531.309,221.197,531.258,221.446z M503.008,199.433c-0.281,0.331-0.569,0.655-0.849,0.986
		c-0.041-0.269-0.081-0.539-0.122-0.809C502.364,199.564,502.689,199.512,503.008,199.433z M649.268,181.879
		c1.269-1.747,2.545-3.488,3.795-5.252c3.068-1.971,6.118-3.969,9.196-5.925c0.016,0.518,0.037,1.037,0.051,1.554
		C657.932,175.425,653.588,178.642,649.268,181.879z M598.49,269.253c-0.941,0.801-1.876,1.61-2.817,2.413
		c0.039-0.248,0.085-0.494,0.125-0.74C596.695,270.368,597.593,269.811,598.49,269.253z M576.247,180.362
		c4.677-3.792,9.357-7.579,14.034-11.373c-0.613,2.094-1.226,4.187-1.839,6.281C584.342,176.875,580.273,178.56,576.247,180.362z
		 M516.351,288.441c0.006,0.107,0.014,0.214,0.02,0.321c-2.557,2.235-5.147,4.433-7.694,6.681c0.178-0.664,0.339-1.331,0.512-1.995
		C511.576,291.777,513.959,290.102,516.351,288.441z M504.791,308.805c0.126,0.134,0.272,0.249,0.408,0.374
		c-0.243,0.202-0.491,0.398-0.733,0.6C504.571,309.454,504.688,309.13,504.791,308.805z M578.317,281.785
		c-0.278,1.796-0.528,3.593-0.751,5.388c-1.147,0.993-2.294,1.985-3.439,2.978c0.702-2.319,1.37-4.654,1.991-7.001
		C576.851,282.695,577.584,282.24,578.317,281.785z M679.678,244.738c-0.966,0.833-1.905,1.664-2.85,2.497
		c0.023-0.185,0.047-0.371,0.069-0.557C677.827,246.035,678.749,245.382,679.678,244.738z M743.165,254.841
		c1.373-0.979,2.756-1.946,4.126-2.93c-1.859,1.783-3.738,3.549-5.534,5.392c-0.483,0.349-0.967,0.696-1.451,1.044
		C741.278,257.193,742.218,256.014,743.165,254.841z M630.122,281.121c0.09,0.336,0.165,0.676,0.257,1.011
		c-0.971,0.513-1.953,1.005-2.926,1.514C628.346,282.808,629.226,281.956,630.122,281.121z M645.979,267.716
		c3.678-2.462,7.333-4.957,11-7.436c-0.393,2.606-0.837,5.207-1.271,7.808c-2.791,1.624-5.598,3.223-8.412,4.809
		C646.848,271.171,646.379,269.45,645.979,267.716z M680.793,159.462c-0.017-0.096-0.037-0.191-0.053-0.288
		c13.679-8.502,27.443-16.873,41.317-25.075c3.434-0.089,6.882-0.187,10.345-0.292C713.974,139.706,697.01,148.874,680.793,159.462z
		 M684.222,135.913c0.375-0.48,0.697-0.978,0.95-1.497c0.516-0.002,1.031-0.006,1.547-0.008
		C685.885,134.908,685.054,135.411,684.222,135.913z M598.255,141.757c-0.043,0.147-0.086,0.294-0.129,0.44
		c-8.368,6.355-16.624,12.833-24.693,19.517c-1.338-1.206-3.098-2.031-5.325-2.134c-1.062-0.049-2.081-0.027-3.125-0.047
		c0.403-3.038,0.803-6.076,1.216-9.114c4.677-4.844,9.372-9.672,14.085-14.486c7.548-0.179,15.097-0.338,22.645-0.496
		C600.859,136.735,599.114,138.828,598.255,141.757z M488.484,147.079c-3.193-0.863-6.847-0.112-9.249,2.133
		c-0.089-3.546-0.162-7.092-0.256-10.639c7.083-0.185,14.161-0.381,21.242-0.572C496.308,141.027,492.395,144.052,488.484,147.079z
		 M578.365,311.971c0.306,1.137,0.668,2.258,1.08,3.365c-2.187,0.049-4.374,0.112-6.561,0.156
		C574.711,314.318,576.539,313.146,578.365,311.971z M607.403,311.56c9.432-4.485,18.745-9.157,27.932-14.022
		c1.92,5.241,4.056,10.436,6.504,15.561c-11.94,0.595-23.883,1.103-35.832,1.503C606.474,313.588,606.947,312.576,607.403,311.56z
		 M685.645,310.461c8.329-2.032,16.217-6.456,23.876-11.371c-1.044,1.708-2.143,3.354-3.154,5.1
		c-0.947,1.635-1.192,3.254-0.983,4.75c-4.556,0.373-9.109,0.773-13.668,1.115C689.694,310.207,687.669,310.316,685.645,310.461z
		 M735.887,306.23c6.336-3.531,12.307-7.517,17.988-11.896c0.032,2.785,0.196,5.621,0.642,8.57c0.111,0.735,0.378,1.369,0.677,1.976
		c-4.083,0.137-7.743,0.245-10.469,0.518C741.78,305.693,738.832,305.947,735.887,306.23z M769.77,304.04
		c2.304-4.362,4.444-8.767,6.509-13.193c-0.262,1.216-0.446,2.433-0.722,3.649c-0.895,3.939,0.469,6.76,2.722,8.331
		C775.542,303.366,772.676,303.758,769.77,304.04z M791.456,297.754c2.176-6.471,4.04-12.968,5.733-19.479
		c0.019,6.333-0.383,12.131-1.901,15.108C794.416,295.095,793.091,296.528,791.456,297.754z M799.068,150.071
		c0.492,2.055,0.679,4.311,0.704,6.654c-1.664-1.221-3.897-1.519-6.108-1.076c-0.794-4.076-1.533-8.153-2.478-12.228
		c-1.771-7.639-9.772-7.015-13.941-2.501c-0.266,0.062-0.528,0.099-0.797,0.189c-27.633,9.191-51.806,25.441-74.767,43.314
		c-2.294,0.267-4.61,0.793-6.934,1.465c26.228-17.331,52.568-34.493,79.118-51.34c1.223,0.13,2.46,0.218,3.674,0.379
		C792.252,136.87,795.697,135.979,799.068,150.071z M657.514,134.557c-14.869,9.252-29.594,18.713-44.149,28.42
		c0.665-4.77,1.328-9.54,1.994-14.31c3.358-2.725,6.722-5.442,10.08-8.168c2.008-1.63,3.022-3.589,3.281-5.515
		C638.316,134.823,647.914,134.661,657.514,134.557z M521.619,317.004c4.968-3.087,9.938-6.172,14.906-9.259
		c0.058,3.061,0.063,6.118,0.165,9.182C531.629,317.104,526.588,317.158,521.619,317.004z M605.299,712.52
		c-4.621,1.323-9.008,0.609-13.159-2.143c-8.411-0.329-11.251-4.892-8.518-13.689c-2.581-8.042-1.358-19-1.961-27.346
		c-1.429-19.764-2.973-39.518-4.509-59.272c-0.183-2.348-0.93-4.217-1.986-5.722c44.61-2.798,89.036-8.751,133.569-12.498
		c0.15,40.203,1.12,80.415,1.069,120.615c-14.794-1.598-29.619-2.674-44.52-2.901C645.411,709.26,624.94,713.382,605.299,712.52z
		 M1117.594,1050.423c-9.394,8.356-53.798,4.16-64.578,4.71c-20.056,1.023-40.113,2.177-60.18,2.961
		c-7.271,0.283-23.459,4.032-29.78,0.654c-6.32,1.62-7.461-1.026-3.421-7.938c-0.118-5.513-0.237-11.026-0.356-16.538
		c-0.984-45.598-1.985-91.193-3.261-136.785c-0.104-3.704-1.583-6.522-3.738-8.467c57.473-5.07,114.886-12.048,172.468-15.427
		c-2.003,37.765-3.277,75.56-4.71,113.351C1119.675,996.536,1123.756,1044.942,1117.594,1050.423z M948.843,639.399
		c0.728,2.541,1.475,5.079,2.178,7.624c-1.017,1.164-1.564,2.475-1.719,3.785C949.154,647.004,948.993,643.202,948.843,639.399z
		 M999.072,660.55c5.04-3.523,10.13-6.953,15.284-10.27c0.465,0.969,0.908,1.943,1.35,2.919c-5.49,2.809-11.075,5.381-16.64,7.442
		C999.068,660.611,999.069,660.58,999.072,660.55z M1063.907,627.805c0.066,0.105,0.125,0.213,0.191,0.317
		c-4.534,2.17-9.068,4.341-13.603,6.511c0.457-1.346,0.925-2.683,1.435-3.988C1055.921,629.793,1059.914,628.851,1063.907,627.805z
		 M1044.052,688.38c-0.318-2.449-0.707-4.883-1.142-7.308c0.01-0.22,0.016-0.44,0.027-0.66c1.984-1.248,4.024-2.409,6.027-3.626
		c10.216-5.143,20.432-10.285,30.649-15.427c0.831,2.492,1.635,4.995,2.359,7.524
		C1069.186,675.115,1056.553,681.623,1044.052,688.38z M1044.482,661.949c0.122-0.976,0.284-1.933,0.421-2.902
		c9.029-5.505,18.157-10.851,27.384-16.036c0.428,0.903,0.799,1.829,1.209,2.739
		C1063.613,650.802,1053.983,656.272,1044.482,661.949z M1030.83,640.122c-0.153,0.643-0.301,1.289-0.447,1.936
		c-0.208-0.438-0.436-0.871-0.648-1.309C1030.098,640.536,1030.468,640.335,1030.83,640.122z M1022.925,673.15
		c-0.66,0.332-1.32,0.664-1.98,0.997c0.636-0.416,1.282-0.817,1.92-1.231C1022.886,672.993,1022.904,673.072,1022.925,673.15z
		 M1025.191,692.134c-0.001,0.059-0.004,0.118-0.005,0.178c-0.096,0.005-0.193,0.012-0.29,0.018
		C1024.993,692.262,1025.093,692.201,1025.191,692.134z M1096.183,653.017c0.446-0.225,0.892-0.449,1.339-0.674
		c-0.077,1.303-0.153,2.606-0.231,3.909C1096.936,655.169,1096.557,654.095,1096.183,653.017z M1090.126,637.709
		c-0.536-1.192-1.104-2.373-1.668-3.555c2.815-1.506,5.62-3.026,8.453-4.503c0.062,1.6,0.164,3.204,0.293,4.81
		C1094.833,635.524,1092.477,636.613,1090.126,637.709z M1022.89,729.754c0.712-0.354,2.11-0.69,2.11-1.027c0,0.038,0,0.073,0,0.111
		C1025,729.146,1023.592,729.443,1022.89,729.754z M1044.905,720.093c14.533-6.313,29.064-12.628,43.596-18.944
		c0.172,1.309,0.373,2.61,0.526,3.922c-14.941,4.643-29.662,9.862-44.179,15.615C1044.864,720.489,1044.891,720.29,1044.905,720.093
		z M979.664,680.546c0.693-0.057,1.389-0.093,2.077-0.176c0.019,0.821,0.04,1.641,0.069,2.461c-0.569,0.406-1.136,0.815-1.703,1.222
		C979.965,682.915,979.817,681.745,979.664,680.546z M947.923,616.408c-0.001,0.001-0.003,0.002-0.004,0.003
		c0-0.004,0-0.008,0-0.012C947.92,616.401,947.922,616.404,947.923,616.408z M1086.147,734.338c2.244-0.949,3.863-2.905,4.733-5.093
		c0.132,3.114,0.23,6.227,0.291,9.337c-8.642,1.468-17.314,2.762-25.994,3.992C1072.2,740.006,1079.189,737.28,1086.147,734.338z
		 M1127.908,746.688c0.982-0.781,1.888-1.595,2.665-2.461c0.228,6.314,0.458,12.628,0.734,18.943
		c-1.807-0.152-3.614-0.313-5.421-0.453c0.707-1.171,1.204-2.574,1.338-4.285C1127.531,754.521,1127.694,750.603,1127.908,746.688z
		 M1128.993,653.847c-0.237-0.375-0.501-0.731-0.8-1.055c-1.854-11.974-3.923-23.91-6.126-35.817c3.008-1.524,4.493-4.151,4.787-6.8
		c3.764-4.533,3.911-12.298-2.134-13.937c4.073-4.834,0.894-13.22-6.302-12.167c-0.007-0.032-0.032-0.06-0.04-0.092
		c3.91-0.36,7.82-0.723,11.73-1.081C1129.351,606.553,1129.021,630.202,1128.993,653.847z M949.389,652.988
		c0.276,1.278,0.931,2.449,1.885,3.36c-0.604,0.746-1.121,1.537-1.657,2.32C949.545,656.774,949.463,654.881,949.389,652.988z
		 M960.136,698.796c-3.205,2.433-6.44,4.82-9.616,7.299c-0.139,0.108-0.232,0.261-0.363,0.378c0.032-5.405,0.163-10.643,0.26-15.487
		C953.055,694.052,956.383,696.635,960.136,698.796z M953.272,719.884c4.39,0.311,8.937-0.223,13.562-1.365
		c0.028,0.183,0.051,0.367,0.079,0.551c-1.33,1.193-2.708,2.317-4.028,3.526c-2.725,2.495-5.407,7.74-2.092,11.074
		c0.147,0.147,0.306,0.24,0.454,0.381c-0.368,0.566-0.749,1.12-1.073,1.719c-1.254,2.313-1.354,5.468-0.329,7.989
		c-0.291,0.057-0.583,0.114-0.874,0.172c-1.585,0.314-2.915,1.158-3.992,2.261c-2.929-7.9-4.161-17.423-4.596-27.166
		C951.198,719.466,952.121,719.803,953.272,719.884z M1055.846,760.5c3.112-0.402,6.231-0.735,9.339-1.165
		c7.711-1.069,17.578-1.608,27.439-2.628c3.384,4.819,12.24,4.189,15.417-1.158c0.077,0.766,0.136,1.533,0.213,2.299
		c0.144,1.425,0.554,2.682,1.151,3.777C1091.58,760.604,1073.735,760.133,1055.846,760.5z M950.829,598.384
		c-1.535,0.806-2.708,2.016-3.496,3.429c-0.046-1.055-0.081-2.111-0.127-3.166C948.413,598.56,949.621,598.472,950.829,598.384z"/>
	<path style="fill:#333;" d="M442.838,883.474c7.989,7.534,20.536-3.495,13.716-12.174c-21.88-27.848-54.702-43.504-83.694-62.655
		c-29.766-19.663-52.651-50.009-87.437-60.519c30.596-8.107,61.325-14.906,93.408-11.695c5.583,0.559,10.25-4.735,10.532-9.986
		c1.881-35.038,1.299-70.063-2.888-104.927c-1.509-12.565-0.437-36.154-13.5-42.876c-7.88-4.055-21.182,0.151-29.55,1.133
		c-17.624,2.068-35.235,4.377-52.777,7.051c-4.247,0.648-8.49,1.317-12.73,2.004c-2.005-10.875-6.107-21.745-7.954-32.529
		c1.629-13.107-0.467-26.742-2.292-39.76c-0.164-1.173-0.3-2.369-0.44-3.564c0.123-4.915,0.36-9.836,0.707-14.766
		c0.174-2.467-1.746-4.147-4.065-4.88c-1.572-4.832-4.01-9.21-8.225-12.594c-1.337-1.073-3.728-0.89-4.488,0.818
		c-5.117,11.497-0.567,22.949,0.899,35.207c0.342,2.865,0.54,5.808,0.698,8.778c-1.555,22.316-0.443,47.519,8.393,66.146
		c-22.495,4.005-44.822,8.804-66.83,14.995c-2.74-0.279-5.433,0.361-7.504,2.171c-0.934,0.277-1.874,0.528-2.807,0.812
		c-4.142,1.257-3.503,5.325-1.065,7.808c-9.701,45.201-16.897,90.711-20.803,136.792c-0.667,7.871,4.658,13.535,12.363,13.791
		c22.585,0.752,44.512-3.006,66.215-8.188c-11.735,20.741-22.257,42.324-33.951,63.03c-11.443,20.262-25.332,39.926-36.547,60.548
		c-2.825-1.645-6.937-1.591-10.334,1.482c-1.116,1.009-2.269,1.966-3.39,2.968c-4.191,0.586-8.228,1.125-11.991,1.537
		c-29.86,3.279-60.025,7.735-88.902,16.107c-4.632,1.343-2.229,6.336,1.168,8.164c-0.279,0.919-0.494,1.909-0.582,3.034
		c-2.358,30.299-3.176,60.767-4.381,91.131c-0.859,21.646-5.514,45.293,4.625,65.236c2.486,4.89,7.29,7.193,12.592,6.721
		c28.842-2.571,57.683-5.156,86.523-7.762c24.813-2.242,54.687-0.507,78.621-7.262c9.551-2.696,13.126-6.58,15.157-15.99
		c4.921-22.793-0.872-52.784-1.45-76.133c-0.358-14.463-0.737-28.926-1.154-43.388c-0.28-9.725,1.806-24.712-1.679-33.805
		c-2.907-7.583-5.007-9.164-13.476-11.14c-4.68-1.092-9.77-1.693-15.119-1.934c-1.927-0.955-4.229-1.158-6.421-0.109
		c-6.776,0.031-13.844,0.526-20.94,1.264c8.577-13.37,16.097-27.584,23.806-41.133c15.797-27.766,32.966-56.647,44.309-86.742
		c7.202-1.905,14.394-3.858,21.585-5.798c0.094,1.533,0.838,3.216,2.025,3.894c32.201,18.395,54.553,52.308,85.857,73.138
		C393.484,844.768,419.301,861.277,442.838,883.474z M228.09,945.562c-1.769,0.372-3.504,1.199-4.97,2.434
		c-1.076-3.8-2.278-7.33-3.6-10.536c0.948-1.072,1.893-2.162,2.842-3.222c2.461-2.748,2.843-5.647,1.99-8.054
		c1.209-1.123,2.403-2.261,3.617-3.38C228.78,929.786,228.577,937.681,228.09,945.562z M74.843,1003.342
		c1.268,3.783,2.625,7.911,4.174,12.147c-2.437,4.239-4.582,8.644-6.278,13.289c-0.194,0.531-0.205,1.035-0.288,1.551
		C72.842,1021.215,73.909,1011.835,74.843,1003.342z M142.264,926.72c6.585-6.654,13.079-13.394,19.258-20.431
		c0.15,0.199,0.308,0.391,0.488,0.574C155.549,913.606,148.965,920.226,142.264,926.72z M72.386,1032.497
		c0.081,0.639,0.18,1.264,0.41,1.841c-0.161,0.277-0.318,0.556-0.477,0.833C72.331,1034.285,72.359,1033.391,72.386,1032.497z
		 M92.807,930.866c-1.837-2.109-3.763-4.128-5.858-5.971c-2.437-2.145-5.455-3.058-8.258-2.633c0.001-0.725,0.029-1.451,0.027-2.176
		c-0.006-2.774-0.829-5.174-2.137-7.149c11.626-1.087,23.23-2.304,34.834-3.49C104.694,916.157,98.513,923.281,92.807,930.866z
		 M91.267,1047.32c-0.524,2.464,0.118,4.831,1.506,6.613c-3.222,0.276-6.445,0.547-9.667,0.823
		C85.828,1052.279,88.545,1049.797,91.267,1047.32z M108.996,1051.934c0.738,0.189,1.453,0.306,2.17,0.431
		c-1.067,0.091-2.134,0.181-3.201,0.273C108.309,1052.404,108.653,1052.17,108.996,1051.934z M187.039,1002.463
		c0.368-0.819,0.732-1.64,1.1-2.459c-0.363,2.555-0.655,5.127-0.975,7.692c-0.303-1.198-0.576-2.418-0.841-3.647
		C186.563,1003.514,186.797,1003.003,187.039,1002.463z M203.331,1044.812c1.148-5.266,2.175-10.538,3.096-15.817
		c2.307,0.859,5.063,0.511,7.472-0.677c0.377,1.265,0.705,2.538,1.089,3.802c0.499,1.641,1.369,2.859,2.446,3.739
		c0.032,0.625,0.1,1.238,0.128,1.863c0.054,1.101,0.118,2.196,0.171,3.299c0.042,0.882,0.226,1.649,0.47,2.365
		c-4.84,0.894-9.874,1.369-14.953,1.648C203.268,1044.953,203.313,1044.896,203.331,1044.812z M215.242,904.373
		c-1.953,0.842-3.703,2.424-4.874,4.796c-1.824-1.151-3.996-1.651-6.087-1.455c1.578-1.507,3.147-3.022,4.728-4.526
		C211.21,903.427,213.309,903.803,215.242,904.373z M182.212,906.183c0.197-0.706,0.276-1.398,0.22-2.061
		c0.699-0.057,1.428-0.122,2.148-0.186C183.786,904.679,183.002,905.434,182.212,906.183z M123.87,1051.283
		c8.602-3.183,15.292-10.996,20.352-19.291c-0.431,1.252-0.926,2.465-1.342,3.727c-2.053,6.217,2.73,15.035,10.281,11.076
		c9.234-4.842,15.551-11.173,20.604-18.58c2.845,6.75,6.52,12.79,11.173,17.866C164.58,1047.796,144.226,1049.547,123.87,1051.283z
		 M342.033,596.183c29.459-2.169,26.389,25.09,27.952,47.715c1.625,23.534,1.507,47.066,0.251,70.594
		c-63.171-3.237-121.604,28.104-184.315,30.258c4.839-41.235,11.31-82.156,20.117-122.767c0.45-2.074,0.328-3.992-0.14-5.749
		c21.395-3.842,42.75-7.752,64.176-11.195c1.193,1.285,2.396,2.56,3.738,3.693c2.011,1.695,4.336,0.53,4.732-1.907
		c0.171-1.051,0.175-2.105,0.262-3.158C299.757,600.446,320.792,597.748,342.033,596.183z"/>
	<path style="fill:#333;" d="M534.578,887.237c-0.026-5.058-4.765-8.679-9.563-8.214c-35.997,3.497-71.702,8.706-107.106,16.143
		c-10.066,2.114-30.793,3.775-46.504,9.091c-6.665-4.72-17.399-3.049-17.55,7.528c-0.017,1.168-0.033,2.338-0.05,3.507
		c-0.414,0.594-0.868,1.17-1.187,1.805c-0.947,1.886-0.26,3.881,1.086,5.352c-0.349,24.424-0.697,48.847-1.041,73.27
		c-0.321,22.766-5.976,52.277-0.072,74.25c8.329,31.002,52.345,20.013,76.127,17.546c26.901-2.789,53.889-8.13,79.684-16.306
		c12.955-4.106,21.243-6.967,24.025-21.156c4.634-23.638,1.034-51.708,1.323-75.82C534.096,945.239,534.727,916.235,534.578,887.237
		z M450.873,1049.218c4.254-2.746,8.507-5.492,12.76-8.239c0.547,0.916,1.085,1.842,1.643,2.747
		c-5.607,2.912-11.24,5.773-16.905,8.567C449.226,1051.306,450.059,1050.282,450.873,1049.218z M421.71,995.677
		c3.388-3.394,6.628-6.57,9.532-9.446c1.443,1.898,2.835,3.842,4.188,5.819c-0.808,2.05-1.637,4.09-2.399,6.161
		c-2.831,3.167-5.734,6.319-8.708,9.409C423.634,1003.627,422.778,999.645,421.71,995.677z M467.283,984.059
		c-1.631,3.662-4.021,8.933-6.859,14.893c-0.917-1.621-1.836-3.24-2.77-4.844C460.895,990.787,464.073,987.409,467.283,984.059z
		 M446.604,1010.341c0.857,1.53,1.712,3.061,2.556,4.601c-1.581,0.432-3.04,0.873-4.416,1.303
		C445.354,1014.272,445.95,1012.295,446.604,1010.341z M439.882,1034.021c0.636-0.146,1.27-0.28,1.907-0.432
		c-0.908,1.385-1.799,2.68-2.669,3.865C439.374,1036.31,439.614,1035.16,439.882,1034.021z M432.759,960.206
		c-0.504-0.504-1.039-0.986-1.554-1.481c1.488-1.1,3.023-2.283,4.599-3.54c0.381,0.129,0.757,0.269,1.138,0.396
		C435.533,957.142,434.138,958.682,432.759,960.206z M486.429,1051.719c1.723-0.931,3.444-1.867,5.162-2.811
		c-0.074,1.398-0.143,2.796-0.22,4.195c-0.099-0.035-0.155-0.097-0.257-0.131C489.561,1052.467,487.999,1052.051,486.429,1051.719z
		 M473.018,903.519c0.061-0.573,0.026-1.133-0.067-1.681c0.948-0.096,1.895-0.189,2.843-0.282
		C474.866,902.207,473.943,902.864,473.018,903.519z M409.716,927.851c-1.493-0.655-2.993-1.294-4.48-1.962
		c3.31-1.018,6.621-2.034,9.931-3.051C413.347,924.504,411.535,926.182,409.716,927.851z M383.126,916.206
		c-2.408,0.032-4.867,1.388-6.626,3.348c0.019-1.049,0.039-2.097,0.059-3.145c2.815-0.645,5.756-1.194,8.685-1.668
		C384.534,915.223,383.834,915.719,383.126,916.206z M398.394,1067.444c0.222,0.581,0.403,1.171,0.628,1.751
		c-0.748,0.022-1.467,0.017-2.195,0.019C397.412,1068.719,397.931,1068.131,398.394,1067.444z M452.306,904.202
		c-2.616,1.82-5.233,3.638-7.849,5.459c-0.262-1.599-1.522-3.049-3.173-3.999c0.943-0.135,1.882-0.303,2.825-0.434
		C446.839,904.847,449.574,904.55,452.306,904.202z M425.549,908.08c-10.814,3.599-21.632,7.187-32.449,10.778
		c2.29-2.068,4.574-4.144,6.851-6.226c1.544-0.226,2.941-0.449,4.103-0.677C411.195,910.553,418.365,909.272,425.549,908.08z
		 M373.495,1052.479c1.403,1.401,3.386,2.265,5.352,2.457c1.519,3.75,3.045,7.498,4.763,11.217c0.284,0.614,0.672,1.114,1.052,1.62
		c-0.605-0.188-1.223-0.365-1.77-0.597C376.605,1064.518,374.205,1059.046,373.495,1052.479z M509.998,1042.017
		c3.628-37.068,3.57-74.199,2.881-111.445c0.881-1.516,1.717-3.037,2.481-4.563c-0.568,22.422-0.861,44.86-1.364,67.268
		C513.69,1006.874,517.206,1028.372,509.998,1042.017z"/>
	<path style="fill:#333;" d="M239.318,650.232c-8.572,2.191-7.304,12.696,1.7,12.29c33.246-1.497,70.059-5.336,101.408-17.143
		c4.354-1.641,2.64-8.172-1.649-8.629C308.126,633.269,270.858,642.169,239.318,650.232z"/>
	<path style="fill:#333;" d="M337.421,667.798c-36.443-0.178-75.08,11.717-110.834,18.515c-7.459,1.418-4.803,12.915,2.563,11.676
		c36.416-6.126,76.436-9.027,111.35-21.413C346.003,674.625,341.819,667.82,337.421,667.798z"/>
	<path style="fill:#333;" d="M667.896,637.219c5.662-2.452,2.757-9.916-2.978-9.609c-12.446,0.666-24.686,4.689-37.031,6.556
		c-14.199,2.148-28.485,3.445-42.829,4.051c-5.821,0.247-3.605,9.118,1.448,9.209C612.448,647.891,643.661,647.716,667.896,637.219z
		"/>
	<path style="fill:#333;" d="M671.343,654.797c-22.668-2.594-49.352,5.66-71.287,11.101c-7.331,1.819-3.701,11.633,2.997,10.15
		c22.887-5.068,47.578-5.601,69.982-11.96C678.777,662.458,676.551,655.392,671.343,654.797z"/>
	<path style="fill:#333;" d="M1066.909,930.05c6.111-1.593,6.42-9.625,0.11-11.239c-26.123-6.682-61.231,5.187-85.727,14.059
		c-9.13,3.307-4.392,15.594,4.752,12.687c15.116-4.806,30.773-8.614,46.471-10.877
		C1044.015,933.023,1055.647,932.987,1066.909,930.05z"/>
	<path style="fill:#333;" d="M1095.922,967.316c-32.079-4.107-66.443,6.294-99.276,6.187c-9.539-0.031-13.768,15.176-2.929,15.677
		c32.51,1.505,76.239,4.033,103.945-15.653C1099.812,971.999,1098.437,967.638,1095.922,967.316z"/>
</g>
</svg>
