<?xml version="1.0" encoding="utf-8"?>
<!--Designed by Vexels.com - 2018 All Rights Reserved - https://vexels.com/terms-and-conditions/-->
<svg version="1.1" id="Layer_1" xmlns="http://www.w3.org/2000/svg" xmlns:xlink="http://www.w3.org/1999/xlink" x="0px" y="0px"
	 viewBox="0 0 1200 1200" enable-background="new 0 0 1200 1200" xml:space="preserve">
<path style="fill:#3c3c3c;" d="M1140.716,218.861c-78.696-5.586-157.385-11.312-236.098-16.634c-76.095-5.145-152.731-8.483-228.626,1.046
	c-7.328,0.92-13.453,10.07-9.241,17.059c18.329,30.418,40.436,57.113,66.523,80.504c-90.491,20.941-179.165,49.845-264.52,86.478
	c-79.376,34.068-160.88,72.811-230.315,124.757c-57.694,43.163-112.235,91.117-165.65,139.426
	c-22.461,20.314-32.283,47.077-10.935,72.812c22.799,27.484,50.651,51.937,75.361,77.744c27.367,28.581,53.891,57.692,79.96,87.452
	c34.548,39.44,67.139,84.166,113.319,109.878c1.983,5.269,11.359,4.318,10.35-2.123c-14.685-93.729,47.97-189.836,97.479-264.805
	c42.816-64.835,95.457-123.522,155.471-172.893c59.24-48.735,125.745-88.505,196.996-116.987c7.3-2.918,15.861-7.72,23.72-9.011
	c19.466-3.197,23.684,4.515,31.027,20.53c6.38,13.915,13.53,27.485,21.466,40.576c19.938,32.89,44.992,62.168,73.413,87.992
	c6.016,5.466,14.647,1.143,16.025-6.205c24.428-130.289,91.452-248.734,189.909-337.43
	C1152.779,233.233,1150.6,219.561,1140.716,218.861z M940.64,554.727c-31.601-31.166-57.88-67.247-76.599-107.706
	c-5.434-11.745-8.863-28.654-20.956-35.634c-13.865-8.002-29.636,0.114-43.153,5.169c-77.168,28.859-149.664,70.646-213.522,122.677
	c-69.526,56.65-126.078,124.861-171.948,201.754c-40.328,67.602-93.86,149.554-88.114,231.804
	c-17.591-27.654-42.498-50.334-64.497-74.949c-23.071-25.815-45.378-52.285-69.013-77.592
	c-24.041-25.74-48.527-51.067-73.063-76.335c-10.643-10.961-22.489-21.437-32.307-33.145c-16.352-19.502-4.027-31.435,11.654-45.416
	c50.966-45.438,102.408-90.922,157.109-131.856c65.158-48.761,141.552-84.991,215.887-117.383
	c94.625-41.236,192.803-72.544,293.439-95.305c12.112-2.739,12.836-17.367,3.904-24.038c-27.48-20.525-50.044-43.749-69.725-71.235
	c68.431-7.442,136.859-4.699,205.579-0.175c69.31,4.563,138.604,9.372,207.906,14.075
	C1026.303,325.474,966.572,435.069,940.64,554.727z"/>
</svg>
