<?xml version="1.0" encoding="utf-8"?>
<!--Designed by Vexels.com - 2018 All Rights Reserved - https://vexels.com/terms-and-conditions/-->
<svg version="1.1" id="Layer_1" xmlns="http://www.w3.org/2000/svg" xmlns:xlink="http://www.w3.org/1999/xlink" x="0px" y="0px"
	 viewBox="0 0 1200 1200" enable-background="new 0 0 1200 1200" xml:space="preserve">
<g>
	<path style="fill:#3c3c3c;" d="M754.165,366.125c-80.517-39.521-194.97-51.431-274.438-4.04c-87.235,52.023-111.053,162.89-81.367,255.064
		c18.988,58.959,57,101.644,94.622,149.228c54.856,69.379,56.294,133.537,43.825,210.086c-14.982-1.301-20.83,23.875-5.727,31.791
		c-0.246,1.275-0.471,2.514-0.721,3.797c-0.339,1.732,0.345,3.31,1.449,4.561c-5.474,30.855,19.761,58.637,49.817,74.283
		c-6.261,9.806-1.077,25.672,4.717,35.107c8.337,13.576,22.985,23.61,39.23,23.986c16.414,0.379,32.214-8.413,41.932-21.412
		c7.463-9.984,13.475-23.906,7.607-34.797c28.299-14.403,46.652-42.676,45.143-77.781c2.523-0.9,5.049-1.767,7.563-2.747
		c5.953-2.318,10.241-11.428,8.448-17.574c-40.812-139.929,70.368-256.877,103.633-385.223
		C863.135,520.791,844.581,410.506,754.165,366.125z M582.004,869.995c1.704,3.071,5.901,4.306,7.002-0.389
		c0.023-0.099,0.041-0.201,0.064-0.301c14.018-1.484,28.008-3.571,42.245-3.248c4.962,0.112,9.806,0.459,14.602,0.914
		c2.943,7.35,13.671,8.505,19.807,2.873c12.347,2.486,24.296,6.224,36.127,11.071c-0.598,3.007-1.189,6.016-1.696,9.038
		c-20.39-7.283-60.451-9.927-64.329-10.044c-24.032-0.723-47.091,1.463-70.244,7.655c-0.217-5.754-0.698-11.491-1.345-17.212
		c0.493,0.212,0.999,0.344,1.504,0.348C571.184,870.748,576.599,870.454,582.004,869.995z M599.003,683.823
		c-0.168-1.16-0.356-2.519-0.54-3.832c8.615-1.96,17.141-5.908,25.178-12c8.633,12.435,19.833,22.546,33.111,26.084
		c0.537,7.261,1.126,14.503,1.636,21.691c3.225,45.439-2.287,88.369-10.772,132.709c-17.279-1.114-36.545-1.425-54.51,1.922
		C604.003,795.676,607.01,739.195,599.003,683.823z M679.36,656.658c-0.105-12.512,1.209-24.3,5.476-33.627
		c9.025-19.733,9.863-1.648,7.519,10.476C693.916,645.527,689.485,653.172,679.36,656.658z M563.212,933.32
		c43.534,1.939,86.912,3.305,130.237,8.589c1.125,0.137,2.109-0.041,3.097-0.201c0.19,6.039,0.599,12.116,1.264,18.236
		c-16.212-3.711-33.983-0.478-50.98-1.893c-12.789-1.065-24.688-4.772-37.351-6.211c-16.393-1.864-33.036,0.798-49.556,0.852
		C561.211,946.265,562.333,939.808,563.212,933.32z M565.7,894.732c45.23-2.461,88.847-2.688,132.266,11.394
		c-0.658,6.023-1.15,12.072-1.389,18.166c-43.916-4.341-88.211-6.544-132.104-1.524C565.391,913.433,565.778,904.074,565.7,894.732z
		 M557.25,964.858c10.298,3.939,19.948,3.781,31.493,3.94c13.907,0.193,25.392,3.691,38.915,6.674
		c23.473,5.179,49.19,4.707,73.375,5.232c0.457,2.289,0.872,4.572,1.402,6.874c-49.959,16.386-100.975,14.225-149.792-5.243
		C554.336,976.562,555.846,970.724,557.25,964.858z M625.232,1128.251c-11.002-1.666-19.734-10.834-23.366-20.994
		c-1.146-3.204-1.547-5.989-1.89-8.527c10.336,3.49,20.624,5.442,29.892,5.477c8.827,0.033,17.288-1.106,25.322-3.107
		C650.519,1115.845,644.732,1131.205,625.232,1128.251z M628.592,1078.316c-41.004-1.068-61.915-26.803-75.98-61.296
		c46.609,16.507,95.057,18.494,142.571,6.588C694.808,1059.43,663.243,1079.218,628.592,1078.316z M803.52,624.941
		c-26.23,78.67-74.673,153.552-96.261,233.043c-10.793-4.236-23.147-6.344-34.907-7.587c9.171-43.436,15.429-85.528,12.794-130.427
		c-0.468-7.966-1.708-17.445-2.923-27.491c33.719-12.843,42.321-61.325,32.849-92.231c-13.478-43.974-49.366-10.333-55.842,18.674
		c-2.897,12.974-3.895,26.166-3.969,39.414c-1.651-0.151-3.164-0.201-4.925-0.432c-2.998-3.642-5.591-7.496-7.873-11.514
		c14.959-24.007,26.749-60.646,4.184-74.397c-33.492-20.409-45.839,34.679-40.762,56.205c0.112,0.477,0.271,0.983,0.392,1.466
		c-5.44,1.493-10.881,2.987-16.321,4.481c-7.415-28.023-20.628-55.1-46.171-54.162c-40.786,1.496-25.191,47.672-12.005,69.205
		c11.123,18.166,27.746,29.141,45.657,31.711c1.104,5.389,1.944,9.764,2.423,12.302c9.962,52.744,7.352,106.449,2.669,159.639
		c-6.92,1.972-13.473,4.682-19.516,8.195c-1.769-11.284-4.398-22.462-8.089-33.44c-18.234-54.235-60.946-92.785-92.225-139.106
		c-39.304-58.207-63.062-130.757-44.986-200.655c19.78-76.488,83.19-120.876,160.033-126.388
		c65.787-4.718,162.924,11.462,207.057,64.948C830.688,481.999,824.9,560.818,803.52,624.941z M567.702,640.254
		c-3.517,0.966-7.033,1.931-10.55,2.896c-2.533-1.817-24.951-33.37-5.441-34.164C557.06,608.769,562.783,623.159,567.702,640.254z"
		/>
	<path style="fill:#3c3c3c;" d="M390.063,737.273c-34.265,44.883-75.36,89.197-103.528,138.106c-4.241,7.362,8.501,13.752,13.669,8.264
		c38.663-41.065,70.21-90.886,104.157-135.948C411.107,738.74,396.245,729.175,390.063,737.273z"/>
	<path style="fill:#3c3c3c;" d="M353.111,636.473c11.103-7.519-2.324-20.539-12.408-14.106c-37.802,24.116-83.583,44.876-116.084,75.834
		c-8.422,8.022,2.645,18.628,11.731,15.326c21.764-7.909,40.616-24.71,59.632-37.745
		C315.048,662.711,333.969,649.435,353.111,636.473z"/>
	<path style="fill:#3c3c3c;" d="M248.296,494.13c-38.174-4.461-77.255-0.184-115.065,5.542c-7.82,1.184-3.832,12.249,2.917,11.93
		c37.632-1.778,75.827-1.391,113.279-5.742C256.288,505.064,254.26,494.827,248.296,494.13z"/>
	<path style="fill:#3c3c3c;" d="M379.44,325.086c8.088-0.188,14.665-10.226,5.703-15.238c-20.741-11.602-47.331-13.65-69.828-21.752
		c-23.87-8.596-44.85-21.035-61.999-39.874c-7.442-8.175-21.669,2.139-13.973,11.455C270.221,297.06,330.43,326.227,379.44,325.086z
		"/>
	<path style="fill:#3c3c3c;" d="M568.102,256.986c1.577,4.011,8.02,6.311,9.986,1.325c23.064-58.519,4.419-142.512-7.682-202.157
		c-1.539-7.586-13.69-8.857-13.1,0.156c2.344,35.79,4.177,71.686,4.751,107.554C562.543,194.277,556.925,228.548,568.102,256.986z"
		/>
	<path style="fill:#3c3c3c;" d="M797.089,299.994c49.83-51.28,105.582-103.706,145.255-163.467c4.56-6.869-5.367-14.235-11.149-8.878
		c-52.742,48.862-98.349,106.632-147.9,158.783C773.987,296.23,788.328,309.011,797.089,299.994z"/>
	<path style="fill:#3c3c3c;" d="M933.82,413.956c34.747-20.309,73.463-34.827,107.265-56.294c8.115-5.155-0.112-16.331-7.971-14.509
		c-37.465,8.688-75.3,33.223-108.361,52.34C912.199,402.752,921.161,421.355,933.82,413.956z"/>
	<path style="fill:#3c3c3c;" d="M1064.835,626.1c-39.329-13.114-85.17-11.605-125.917-18.875c-8.491-1.514-9.002,10.992-1.567,13.069
		c41.373,11.554,84.353,24.823,127.802,20.502C1074.397,639.876,1071.641,628.371,1064.835,626.1z"/>
	<path style="fill:#3c3c3c;" d="M963.765,823.129c-20.273-19.329-42.232-36.673-65.285-52.551c-7.984-5.5-20.612,6.453-11.875,13.274
		c23.096,18.029,44.632,37.55,64.722,58.883c14.615,15.519,28.261,37.985,47.081,48.29c4.825,2.643,14.585,1.386,12.566-6.35
		C1004.686,860.572,981.372,839.916,963.765,823.129z"/>
</g>
</svg>
