<?xml version="1.0" encoding="utf-8"?>
<!--Designed by Vexels.com - 2018 All Rights Reserved - https://vexels.com/terms-and-conditions/-->
<svg version="1.1" id="Layer_1" xmlns="http://www.w3.org/2000/svg" xmlns:xlink="http://www.w3.org/1999/xlink" x="0px" y="0px"
	 viewBox="0 0 1200 1200" enable-background="new 0 0 1200 1200" xml:space="preserve">
<path style="fill:#333;" d="M1122.219,302.833c-38.008-30.651-88.859-21.497-130.299-4.129c-57.412,24.063-113.168,52.847-169.446,79.442
	C706.731,432.842,590.988,487.54,475.247,542.242c-29.608,13.993-59.015,28.922-88.757,42.953
	c-9.128,3.792-18.05,7.909-26.809,12.279c-7.646,3.395-15.313,6.729-23.033,9.903c-16.38,6.733-32.88,13.111-49.232,19.847
	c-1.8-1.541-4.44-2.143-7.909-0.931c-13.89,4.858-26.514,11.493-37.913,19.663c-1.56,0.809-3.121,1.619-4.681,2.428
	c-1.706,0.884-2.872,2.228-3.598,3.769c-20.075,10.351-41.61,23.8-49.756,43.569c-1.424,3.456-2.173,6.906-2.396,10.298
	c-26.948,29.434-49.252,65.503-72.534,96.69c-16.536,22.152-34.318,43.834-49.822,66.715c-5.647,8.334-11.324,17.881-7.629,28.286
	c9.413,26.507,57.371,19.557,83.875,16.14c1.047,0.072,2.122-0.069,3.177-0.404c1.93-0.24,3.749-0.456,5.356-0.616
	c46.955-4.679,105.565-14.059,145.123-41.399c1.669-1.154,2.759-2.939,3.309-4.929c11.563,0.607,23.521-6.557,33.351-12.286
	c44.855-26.143,91.283-49.995,137.823-73.519c45.814-18.805,89.197-42.518,131.957-67.481
	c80.119-41.509,160.193-83.107,240.135-124.955c4.775-2.309,9.545-4.633,14.321-6.939c0.986-0.476,1.784-1.126,2.464-1.863
	c59.181-31.02,118.291-62.177,177.24-93.639c3.404,3.173,8.303,4.636,13.349,2.005c39.299-20.487,81.528-43.859,99.569-86.79
	C1156.447,367.199,1151.936,326.797,1122.219,302.833z M1038.431,449.962c0.238-1.609,0.518-3.182,0.858-4.713
	c1.518-1.31,3.067-2.579,4.578-3.899c2.511-0.726,4.946-1.285,7.291-1.665C1047.88,444.08,1043.575,447.513,1038.431,449.962z
	 M820.097,538.238c-7.828,4.129-15.658,8.255-23.476,12.403c-15.414,7.828-30.829,15.654-46.244,23.479
	c-2.104-2.099-5.422-2.919-9.261-0.809c-14.253,7.834-28.522,15.635-42.776,23.465c-14.622,5.712-29.063,11.82-43.366,18.227
	c5.292-2.782,10.556-5.624,15.86-8.38c91.997-47.797,184.573-94.552,277.631-140.292
	C905.676,490.302,862.883,514.264,820.097,538.238z M289.457,827.639c-2.148,1.325-4.291,2.658-6.428,4.002
	c-0.051-0.38-0.11-0.757-0.142-1.146C285.082,829.554,287.269,828.596,289.457,827.639z M1069.025,442.472
	c0.726,0.537,1.403,1.151,2.036,1.834c-1.585,1.007-3.181,1.994-4.782,2.967C1067.272,445.736,1068.182,444.13,1069.025,442.472z
	 M1058.371,421.024c-1.049,0.048-2.106,0.13-3.171,0.249c-1.427-1.926-3.823-3.008-7.089-2.139c-2.117,0.562-4.17,1.257-6.266,1.862
	c-0.035-0.02-0.068-0.043-0.104-0.063c5.101-2.459,10.179-4.967,15.283-7.421c2.527-1.215,4.174-3.253,5.105-5.566
	c0.895,2.171,1.778,4.349,2.614,6.557C1061.871,415.533,1059.417,418.12,1058.371,421.024z M1051.841,394.33
	c-132.013,64.944-262.983,131.826-392.944,200.787c-124.992,66.324-253.696,130.276-373.59,205.759
	c-1.84-1.02-4.032-1.379-6.231-0.447c-14.222,6.022-25.885-1.668-30.991-14.408c-6.603-16.474,1.689-32.943,14.415-44.951
	c1.96-1.849,2.888-5.041,2.755-8.062C395.916,673.662,525.9,612.732,657.216,554.552c7.696-3.41,15.384-6.832,23.065-10.266
	c101.698-36.237,201.737-76.845,286.707-143.451c15.698-9.135,31.275-18.51,46.727-28.128c2.152,0.829,4.667,0.798,6.313-0.74
	c4.108-3.665,8.217-7.329,12.325-10.994c1.505-1.273,2.436-2.684,2.907-4.101c7.369,11.893,14.27,23.951,20.328,36.494
	C1054.444,393.378,1053.194,393.663,1051.841,394.33z M866.071,379.082c1.94,1.377,4.753,1.782,8.026,0.278
	c2.794-1.282,5.56-2.602,8.335-3.908c0.309,0.923,0.767,1.787,1.358,2.539c-8.919,3.663-17.839,7.327-26.712,11.091
	c2.147-1.993,2.977-4.585,2.839-7.039C861.968,381.053,864.021,380.07,866.071,379.082z M956.444,346.397
	c2.266-0.798,4.578-1.586,6.912-2.343c-0.514,0.409-1.028,0.829-1.541,1.22c-2.356,1.793-4.733,3.56-7.092,5.349
	c-0.686,0.054-1.402,0.19-2.15,0.417c0.973-1.427,1.943-2.854,2.919-4.278C955.812,346.646,956.123,346.51,956.444,346.397z
	 M902.631,397.304c-4.297,2.868-8.581,5.754-12.872,8.632c2.905-2.404,5.742-4.892,8.612-7.339c1.382-0.619,2.771-1.201,4.156-1.81
	C902.561,396.96,902.588,397.134,902.631,397.304z M800.255,458.118c0.159,0.422,0.346,0.83,0.559,1.22
	c-3.096,1.467-6.178,2.962-9.276,4.423C794.439,461.874,797.363,460.021,800.255,458.118z M247.222,679.117
	c3.366-5.687,6.989-11.257,10.848-16.734c0.127,1.691,0.602,3.331,1.388,4.752C255.3,671.02,251.25,675.054,247.222,679.117z
	 M290.454,669.577c-1.616,1.252-3.19,2.56-4.798,3.823c-0.088-0.11-0.183-0.214-0.276-0.319
	C287.071,671.913,288.762,670.745,290.454,669.577z M229.821,683.25c-0.513-0.196-1.048-0.34-1.603-0.436
	c1.527-1.849,3.168-3.564,4.782-5.311C231.887,679.382,230.884,681.337,229.821,683.25z M374.794,637.814
	c3.93-2.861,7.869-5.709,11.83-8.528c2.654-1.055,5.306-2.117,7.955-3.185C387.984,630.005,381.389,633.91,374.794,637.814z
	 M492.393,613.788c0.085-0.037,0.171-0.075,0.256-0.111c-0.09,0.039-0.18,0.079-0.271,0.118
	C492.383,613.792,492.388,613.79,492.393,613.788z M620.389,557.928c0.059,0.155,0.12,0.31,0.19,0.462
	c-32.734,14.379-65.818,28.467-98.908,42.72C554.63,586.833,587.547,572.462,620.389,557.928z M632.583,516.941
	c0.713-0.594,1.423-1.192,2.139-1.782c0.941-0.468,1.883-0.935,2.824-1.403C635.894,514.822,634.235,515.875,632.583,516.941z
	 M642.677,487.835c-18.728,9.011-37.458,18.016-56.2,26.995c-1.527-0.445-3.241-0.349-4.968,0.626
	c-5.995,3.387-11.94,6.855-17.895,10.306c-28.639,13.64-57.356,27.107-86.224,40.24c-0.034-0.642-0.141-1.279-0.35-1.891
	c57.635-27.187,115.269-54.378,172.903-81.568C647.478,484.251,645.101,486.074,642.677,487.835z M239.077,712.416
	c-0.199,0.533-0.431,1.039-0.623,1.578c-2.639,7.389,7.539,9.435,12.015,5.828c1.348,0.517,2.845,0.743,4.546,0.308
	c1.907-0.488,3.763-1.075,5.654-1.595c2.404,2.489,7.105,3.352,10.706,1.014c4.494-2.917,9.044-5.739,13.555-8.625
	c13.893-4.998,27.309-10.966,40.312-17.791c-20.835,11.157-41.358,22.799-61.446,35.093c-1.209-1.789-3.115-2.961-5.95-2.614
	c-9.225,1.128-29.61,1.551-43.522-3.004C222.764,719.584,231.01,716.191,239.077,712.416z M1024.635,348.304
	c-1.331-2.324-3.926-3.581-7.848-2.151c-3.938,1.436-7.822,2.967-11.716,4.478c3.915-3.364,7.832-6.725,11.747-10.09
	c2.262-1.944,3.359-4.351,3.61-6.776c3.012,4.578,5.991,9.15,8.922,13.728C1027.896,347.294,1026.29,347.523,1024.635,348.304z
	 M1012.867,322.303c-2.352-0.545-5.035-0.075-7.738,1.941c-0.173,0.129-0.325,0.22-0.493,0.341
	c-1.237-1.255-2.847-2.068-4.918-2.016c-1.678,0.042-3.326,0.164-4.982,0.264c0.705-0.93,1.156-1.98,1.397-3.079
	c3.743-1.534,7.803-3.029,12.139-4.43C1009.804,317.658,1011.336,319.985,1012.867,322.303z M781.383,420.16
	c-3.853,2.522-7.712,5.036-11.566,7.557c-17.518,8.044-34.983,16.207-52.414,24.445c-0.195-0.397-0.419-0.773-0.679-1.123
	c4.991-2.354,9.982-4.709,14.972-7.063C748.282,436.15,764.835,428.174,781.383,420.16z M104,838.836
	c0.109,0.329,0.228,0.654,0.337,0.984c-0.241-0.175-0.468-0.36-0.71-0.534C103.754,839.134,103.874,838.987,104,838.836z
	 M113.027,890.801c0.909,0.698,1.78,1.414,2.757,2.078c0.506,0.343,1.019,0.508,1.532,0.71c-2.017,0.138-4.036,0.273-6.053,0.382
	C111.908,892.961,112.494,891.901,113.027,890.801z M145.635,891.121c-0.196-0.57-0.414-1.103-0.734-1.528
	c0.228-1.681,0.025-3.395-0.822-4.951c-3.502-6.432-7.485-12.435-11.878-18.073c-1.755-4.935-3.385-9.916-5.088-14.87
	c-1.654-7.309-4.069-14.481-7.323-21.487c-1.36-2.927-3.417-4.314-5.612-4.64c8.875-12.205,17.759-24.406,26.582-36.649
	c13.491-18.717,30.4-38.453,44.401-59.07c1.399,0.559,2.964,0.792,4.721,0.329c0.047-0.012,0.093-0.028,0.14-0.04
	c1.463,1.648,3.036,3.236,4.81,4.699c12.146,10.029,27.379,11.782,42.523,10.894c-9.775,15.467-14.637,33.903-5.781,51.329
	c6.295,12.388,17.787,20.221,30.38,22.026c-9.059,4.278-5.178,18.606,4.009,17.938c0.702,7.407,3.18,14.487,7.921,20.056
	c-27.406,8.085-53.561,19.927-81.729,26.339C176.69,886.942,161.271,889.389,145.635,891.121z M320.987,838.604
	c-4.191,2.419-8.584,5.998-13.228,7.529c-1.796,0.592-3.499,0.896-5.156,1.077c32.194-17.819,64.377-35.659,96.521-53.568
	c1.444,0.972,3.18,1.531,5.121,1.473c-15.602,8.003-31.207,16.004-46.808,24.011C345.145,825.435,332.947,831.699,320.987,838.604z
	 M1019.477,481.333c1.817-1.161,3.648-2.297,5.458-3.47c0.04,0.228,0.069,0.452,0.121,0.679
	C1023.195,479.468,1021.339,480.406,1019.477,481.333z M1089.374,431.374c-10.4-44.611-35.835-85.09-64.311-120.647
	c44.967-10.278,102.786-7.253,103.353,49.977C1128.716,391.098,1111.717,413.634,1089.374,431.374z"/>
</svg>
